# xmcd
#
# Track frame offsets:
#	150
#	18902
#	36239
#	51607
#	68343
#	86181
#	105111
#	122090
#	136046
#	154200
#	172987
#	198860
#
# Disc length: 2937 seconds
#
# Revision: 5
# Processed by: cddbd v1.5.2PL0 Copyright (c) Steve Scherf et al.
# Submitted via: EZCDAudioConverter 8.2.2.1
#
DISCID=930b770c
DTITLE=鄧健泓 - 新居入伙
DYEAR=2004
DGENRE=Pop
TTITLE0=門外看
TTITLE1=一個鐘之後
TTITLE2=阿琴
TTITLE3=一家之主
TTITLE4=私房菜
TTITLE5=未婚相
TTITLE6=枕邊人
TTITLE7=大花灑
TTITLE8=甜蜜租約
TTITLE9=一個鐘之前
TTITLE10=世界之大
TTITLE11=¾H°·ªl - computer data
EXTD=
EXTT0=
EXTT1=
EXTT2=
EXTT3=
EXTT4=
EXTT5=
EXTT6=
EXTT7=
EXTT8=
EXTT9=
EXTT10=
EXTT11=
PLAYORDER=
